<svg width="92" height="55" viewBox="0 0 92 55" fill="none" xmlns="http://www.w3.org/2000/svg">
<rect x="0.5" y="0.5" width="91" height="54" rx="11.5" stroke="#333333" stroke-dasharray="5 5"/>
<path d="M28.9756 28.0586L27.5518 29.6758V34H25.8906V21.2031H27.5518V27.4521L28.791 25.9053L32.5439 21.2031H34.5215L30.0479 26.8018L34.8203 34H32.8428L28.9756 28.0586ZM36.9736 24.4902H41.834V32.5938H44.9365V34H36.9736V32.5938H40.208V25.9053H36.9736V24.4902ZM39.9971 21.9941C39.9971 21.8535 40.0176 21.7217 40.0586 21.5986C40.1055 21.4756 40.1758 21.3701 40.2695 21.2822C40.3457 21.2061 40.4424 21.1475 40.5596 21.1064C40.6826 21.0596 40.8203 21.0361 40.9727 21.0361C41.125 21.0361 41.2598 21.0596 41.377 21.1064C41.4941 21.1475 41.5908 21.2061 41.667 21.2822C41.7607 21.3643 41.8311 21.4668 41.8779 21.5898C41.9248 21.7129 41.9482 21.8477 41.9482 21.9941C41.9482 22.2578 41.8662 22.4775 41.7021 22.6533C41.5381 22.8291 41.2949 22.917 40.9727 22.917C40.6445 22.917 40.3984 22.8291 40.2344 22.6533C40.0762 22.4775 39.9971 22.2578 39.9971 21.9941ZM47.2217 29.166C47.2217 28.457 47.3096 27.8066 47.4854 27.2148C47.667 26.6172 47.9248 26.1045 48.2588 25.6768C48.5869 25.249 48.9854 24.915 49.4541 24.6748C49.9229 24.4346 50.4473 24.3145 51.0273 24.3145C51.5957 24.3145 52.0908 24.4111 52.5127 24.6045C52.9404 24.792 53.3096 25.0674 53.6201 25.4307V20.5H55.2461V34H53.752L53.6816 32.998C53.3652 33.3848 52.9873 33.6777 52.5479 33.877C52.1084 34.0762 51.5957 34.1758 51.0098 34.1758C50.4355 34.1758 49.9141 34.0527 49.4453 33.8066C48.9824 33.5605 48.5869 33.2207 48.2588 32.7871C47.9307 32.3535 47.6758 31.8438 47.4941 31.2578C47.3125 30.666 47.2217 30.0303 47.2217 29.3506V29.166ZM48.8477 29.3506C48.8477 29.8135 48.8975 30.2529 48.9971 30.6689C49.0967 31.085 49.252 31.4512 49.4629 31.7676C49.668 32.084 49.9316 32.3359 50.2539 32.5234C50.5762 32.7051 50.9629 32.7959 51.4141 32.7959C51.959 32.7959 52.4102 32.6729 52.7676 32.4268C53.125 32.1807 53.4092 31.8496 53.6201 31.4336V27.0215C53.4092 26.6348 53.125 26.3184 52.7676 26.0723C52.4102 25.8203 51.9648 25.6943 51.4316 25.6943C50.9746 25.6943 50.582 25.7881 50.2539 25.9756C49.9316 26.1631 49.668 26.415 49.4629 26.7314C49.252 27.0537 49.0967 27.4258 48.9971 27.8477C48.8975 28.2637 48.8477 28.7031 48.8477 29.166V29.3506ZM64.6592 31.4775C64.6592 31.2842 64.6211 31.1113 64.5449 30.959C64.4688 30.8008 64.3398 30.6572 64.1582 30.5283C63.9766 30.3994 63.7363 30.2822 63.4375 30.1768C63.1387 30.0654 62.7666 29.9658 62.3213 29.8779C61.7764 29.7666 61.2783 29.6318 60.8271 29.4736C60.3818 29.3154 60.001 29.125 59.6846 28.9023C59.3623 28.6855 59.1133 28.4307 58.9375 28.1377C58.7617 27.8389 58.6738 27.4932 58.6738 27.1006C58.6738 26.7139 58.7646 26.3535 58.9463 26.0195C59.1279 25.6797 59.3828 25.3838 59.7109 25.1318C60.0391 24.8799 60.4287 24.6807 60.8799 24.5342C61.3369 24.3877 61.8379 24.3145 62.3828 24.3145C62.9688 24.3145 63.4961 24.3906 63.9648 24.543C64.4336 24.6953 64.832 24.9062 65.1602 25.1758C65.4883 25.4453 65.7402 25.7617 65.916 26.125C66.0977 26.4824 66.1885 26.8691 66.1885 27.2852H64.5625C64.5625 27.0801 64.5098 26.8809 64.4043 26.6875C64.2988 26.4883 64.1523 26.3125 63.9648 26.1602C63.7773 26.0078 63.5488 25.8848 63.2793 25.791C63.0156 25.6973 62.7168 25.6504 62.3828 25.6504C62.0371 25.6504 61.7324 25.6885 61.4688 25.7646C61.2109 25.8408 60.9971 25.9434 60.8271 26.0723C60.6514 26.2012 60.5195 26.3506 60.4316 26.5205C60.3438 26.6904 60.2998 26.8662 60.2998 27.0479C60.2998 27.2354 60.335 27.4023 60.4053 27.5488C60.4756 27.6953 60.5986 27.8271 60.7744 27.9443C60.9443 28.0615 61.1729 28.167 61.46 28.2607C61.7529 28.3545 62.1221 28.4453 62.5674 28.5332C63.1533 28.6562 63.6777 28.7998 64.1406 28.9639C64.6035 29.1221 64.9932 29.3125 65.3096 29.5352C65.626 29.7637 65.8662 30.0273 66.0303 30.3262C66.2002 30.625 66.2852 30.9707 66.2852 31.3633C66.2852 31.7852 66.1885 32.1689 65.9951 32.5146C65.8076 32.8604 65.5439 33.1562 65.2041 33.4023C64.8643 33.6484 64.457 33.8389 63.9824 33.9736C63.5078 34.1084 62.9893 34.1758 62.4268 34.1758C61.7822 34.1758 61.208 34.0908 60.7041 33.9209C60.2002 33.7451 59.7754 33.5137 59.4297 33.2266C59.0781 32.9453 58.8086 32.6172 58.6211 32.2422C58.4395 31.8672 58.3486 31.4775 58.3486 31.0732H59.9746C59.998 31.4072 60.0859 31.6885 60.2383 31.917C60.3965 32.1455 60.5928 32.3301 60.8271 32.4707C61.0557 32.6113 61.3105 32.7109 61.5918 32.7695C61.873 32.8281 62.1514 32.8574 62.4268 32.8574C62.8604 32.8574 63.2383 32.8076 63.5605 32.708C63.8828 32.6025 64.1348 32.459 64.3164 32.2773C64.4277 32.166 64.5127 32.043 64.5713 31.9082C64.6299 31.7734 64.6592 31.6299 64.6592 31.4775Z" fill="#B3B3B2"/>
</svg>
