<svg width="92" height="55" viewBox="0 0 92 55" fill="none" xmlns="http://www.w3.org/2000/svg">
<rect x="0.5" y="0.5" width="91" height="54" rx="11.5" stroke="#333333" stroke-dasharray="5 5"/>
<path d="M27.6924 21.2031L29.7754 27.6016L32.0254 21.2031H34.0469V34H32.4648V28.8936L32.5967 23.5498L30.2324 30.4404H29.3008L27.1299 23.7344L27.2617 28.8936V34H25.6797V21.2031H27.6924ZM40.9199 34.1758C40.252 34.1758 39.6367 34.0615 39.0742 33.833C38.5176 33.6045 38.04 33.2852 37.6416 32.875C37.2432 32.4648 36.9326 31.9785 36.71 31.416C36.4873 30.8535 36.376 30.2412 36.376 29.5791V29.21C36.376 28.4424 36.499 27.7568 36.7451 27.1533C36.9912 26.5439 37.3193 26.0283 37.7295 25.6064C38.1338 25.1904 38.5938 24.8711 39.1094 24.6484C39.6309 24.4258 40.1641 24.3145 40.709 24.3145C41.3945 24.3145 41.9922 24.4346 42.502 24.6748C43.0176 24.9092 43.4453 25.2344 43.7852 25.6504C44.125 26.0723 44.377 26.5674 44.541 27.1357C44.7109 27.7041 44.7959 28.3193 44.7959 28.9814V29.7109H38.002V29.7725C38.043 30.2354 38.1338 30.6426 38.2744 30.9941C38.4209 31.3457 38.6201 31.6562 38.8721 31.9258C39.1299 32.2129 39.4404 32.4385 39.8037 32.6025C40.167 32.7666 40.5684 32.8486 41.0078 32.8486C41.5879 32.8486 42.1035 32.7314 42.5547 32.4971C43.0059 32.2627 43.3809 31.9521 43.6797 31.5654L44.6729 32.3389C44.3564 32.8193 43.8818 33.2471 43.249 33.6221C42.6221 33.9912 41.8457 34.1758 40.9199 34.1758ZM40.709 25.6504C40.3809 25.6504 40.0703 25.7119 39.7773 25.835C39.4844 25.9521 39.2207 26.125 38.9863 26.3535C38.752 26.5879 38.5527 26.875 38.3887 27.2148C38.2305 27.5488 38.1191 27.9355 38.0547 28.375H43.1699V28.2959C43.1699 28.0029 43.1143 27.6895 43.0029 27.3555C42.8916 27.0156 42.7363 26.7227 42.5371 26.4766C42.3379 26.2305 42.0859 26.0312 41.7812 25.8789C41.4824 25.7266 41.125 25.6504 40.709 25.6504ZM47.5293 34V24.4902H48.9883L49.1025 25.8965C49.2432 25.6973 49.3955 25.5156 49.5596 25.3516C49.7295 25.1816 49.9082 25.0352 50.0957 24.9121C50.377 24.7246 50.6816 24.5811 51.0098 24.4814C51.3438 24.376 51.6953 24.3203 52.0645 24.3145C52.5625 24.3145 53.0137 24.3848 53.418 24.5254C53.8281 24.666 54.1768 24.8857 54.4639 25.1846C54.751 25.4834 54.9707 25.8643 55.123 26.3271C55.2812 26.7842 55.3604 27.3291 55.3604 27.9619V34H53.7344V27.9971C53.7344 27.5752 53.6875 27.2178 53.5938 26.9248C53.5 26.6318 53.3623 26.3945 53.1807 26.2129C52.9932 26.0312 52.7646 25.8994 52.4951 25.8174C52.2314 25.7354 51.9268 25.6943 51.5811 25.6943C51.2822 25.6943 51.0039 25.7383 50.7461 25.8262C50.4883 25.9082 50.251 26.0225 50.0342 26.1689C49.8584 26.2979 49.6943 26.4473 49.542 26.6172C49.3955 26.7871 49.2666 26.9746 49.1553 27.1797V34H47.5293ZM64.6592 31.4775C64.6592 31.2842 64.6211 31.1113 64.5449 30.959C64.4688 30.8008 64.3398 30.6572 64.1582 30.5283C63.9766 30.3994 63.7363 30.2822 63.4375 30.1768C63.1387 30.0654 62.7666 29.9658 62.3213 29.8779C61.7764 29.7666 61.2783 29.6318 60.8271 29.4736C60.3818 29.3154 60.001 29.125 59.6846 28.9023C59.3623 28.6855 59.1133 28.4307 58.9375 28.1377C58.7617 27.8389 58.6738 27.4932 58.6738 27.1006C58.6738 26.7139 58.7646 26.3535 58.9463 26.0195C59.1279 25.6797 59.3828 25.3838 59.7109 25.1318C60.0391 24.8799 60.4287 24.6807 60.8799 24.5342C61.3369 24.3877 61.8379 24.3145 62.3828 24.3145C62.9688 24.3145 63.4961 24.3906 63.9648 24.543C64.4336 24.6953 64.832 24.9062 65.1602 25.1758C65.4883 25.4453 65.7402 25.7617 65.916 26.125C66.0977 26.4824 66.1885 26.8691 66.1885 27.2852H64.5625C64.5625 27.0801 64.5098 26.8809 64.4043 26.6875C64.2988 26.4883 64.1523 26.3125 63.9648 26.1602C63.7773 26.0078 63.5488 25.8848 63.2793 25.791C63.0156 25.6973 62.7168 25.6504 62.3828 25.6504C62.0371 25.6504 61.7324 25.6885 61.4688 25.7646C61.2109 25.8408 60.9971 25.9434 60.8271 26.0723C60.6514 26.2012 60.5195 26.3506 60.4316 26.5205C60.3438 26.6904 60.2998 26.8662 60.2998 27.0479C60.2998 27.2354 60.335 27.4023 60.4053 27.5488C60.4756 27.6953 60.5986 27.8271 60.7744 27.9443C60.9443 28.0615 61.1729 28.167 61.46 28.2607C61.7529 28.3545 62.1221 28.4453 62.5674 28.5332C63.1533 28.6562 63.6777 28.7998 64.1406 28.9639C64.6035 29.1221 64.9932 29.3125 65.3096 29.5352C65.626 29.7637 65.8662 30.0273 66.0303 30.3262C66.2002 30.625 66.2852 30.9707 66.2852 31.3633C66.2852 31.7852 66.1885 32.1689 65.9951 32.5146C65.8076 32.8604 65.5439 33.1562 65.2041 33.4023C64.8643 33.6484 64.457 33.8389 63.9824 33.9736C63.5078 34.1084 62.9893 34.1758 62.4268 34.1758C61.7822 34.1758 61.208 34.0908 60.7041 33.9209C60.2002 33.7451 59.7754 33.5137 59.4297 33.2266C59.0781 32.9453 58.8086 32.6172 58.6211 32.2422C58.4395 31.8672 58.3486 31.4775 58.3486 31.0732H59.9746C59.998 31.4072 60.0859 31.6885 60.2383 31.917C60.3965 32.1455 60.5928 32.3301 60.8271 32.4707C61.0557 32.6113 61.3105 32.7109 61.5918 32.7695C61.873 32.8281 62.1514 32.8574 62.4268 32.8574C62.8604 32.8574 63.2383 32.8076 63.5605 32.708C63.8828 32.6025 64.1348 32.459 64.3164 32.2773C64.4277 32.166 64.5127 32.043 64.5713 31.9082C64.6299 31.7734 64.6592 31.6299 64.6592 31.4775Z" fill="#B3B3B2"/>
</svg>
