<svg width="135" height="63" viewBox="0 0 135 63" fill="none" xmlns="http://www.w3.org/2000/svg">
<rect x="0.5" y="0.5" width="134" height="62" rx="11.5" stroke="#333333" stroke-dasharray="5 5"/>
<path d="M34.1104 32.3398C34.1045 32.7969 34.0635 33.2598 33.9873 33.7285C33.917 34.1914 33.8057 34.6396 33.6533 35.0732C33.501 35.5068 33.3047 35.9111 33.0645 36.2861C32.8301 36.6611 32.5488 36.9893 32.2207 37.2705C31.8926 37.5518 31.5146 37.7744 31.0869 37.9385C30.665 38.0967 30.1904 38.1758 29.6631 38.1758C29.1357 38.1758 28.6582 38.0967 28.2305 37.9385C27.8086 37.7744 27.4336 37.5518 27.1055 37.2705C26.7773 36.9893 26.4932 36.6611 26.2529 36.2861C26.0127 35.9053 25.8164 35.498 25.6641 35.0645C25.5059 34.6309 25.3887 34.1826 25.3125 33.7197C25.2363 33.2568 25.1953 32.7969 25.1895 32.3398V30.8809C25.1953 30.4238 25.2334 29.9639 25.3037 29.501C25.3799 29.0322 25.4971 28.5811 25.6553 28.1475C25.8076 27.7139 26.001 27.3096 26.2354 26.9346C26.4756 26.5537 26.7598 26.2197 27.0879 25.9326C27.416 25.6514 27.791 25.4316 28.2129 25.2734C28.6406 25.1094 29.1182 25.0273 29.6455 25.0273C30.1729 25.0273 30.6504 25.1094 31.0781 25.2734C31.5059 25.4316 31.8838 25.6514 32.2119 25.9326C32.54 26.2139 32.8213 26.5449 33.0557 26.9258C33.2959 27.3008 33.4951 27.7051 33.6533 28.1387C33.8057 28.5723 33.917 29.0234 33.9873 29.4922C34.0635 29.9609 34.1045 30.4238 34.1104 30.8809V32.3398ZM32.502 30.8633C32.4961 30.5586 32.4756 30.2422 32.4404 29.9141C32.4053 29.5801 32.3467 29.249 32.2646 28.9209C32.1768 28.5986 32.0625 28.291 31.9219 27.998C31.7812 27.6992 31.6055 27.4355 31.3945 27.207C31.1836 26.9844 30.9346 26.8086 30.6475 26.6797C30.3604 26.5449 30.0264 26.4775 29.6455 26.4775C29.2705 26.4775 28.9395 26.5449 28.6523 26.6797C28.3652 26.8145 28.1162 26.9932 27.9053 27.2158C27.6943 27.4443 27.5186 27.708 27.3779 28.0068C27.2373 28.2998 27.126 28.6074 27.0439 28.9297C26.9561 29.2578 26.8916 29.5889 26.8506 29.9229C26.8154 30.251 26.7949 30.5645 26.7891 30.8633V32.3398C26.7949 32.6387 26.8154 32.9551 26.8506 33.2891C26.8916 33.623 26.9561 33.9512 27.0439 34.2734C27.1318 34.6016 27.2461 34.915 27.3867 35.2139C27.5273 35.5127 27.7031 35.7734 27.9141 35.9961C28.125 36.2246 28.374 36.4062 28.6611 36.541C28.9482 36.6758 29.2822 36.7432 29.6631 36.7432C30.0439 36.7432 30.3779 36.6758 30.665 36.541C30.958 36.4062 31.21 36.2246 31.4209 35.9961C31.626 35.7734 31.7959 35.5156 31.9307 35.2227C32.0713 34.9238 32.1855 34.6104 32.2734 34.2822C32.3555 33.96 32.4111 33.6318 32.4404 33.2979C32.4756 32.9639 32.4961 32.6445 32.502 32.3398V30.8633ZM42.8291 28.3145C43.1279 28.3145 43.4385 28.335 43.7607 28.376C44.0889 28.417 44.335 28.4727 44.499 28.543L44.2793 30.1338C43.9629 30.0635 43.6611 30.0137 43.374 29.9844C43.0928 29.9492 42.7969 29.9316 42.4863 29.9316C42.0879 29.9316 41.7275 29.9814 41.4053 30.0811C41.083 30.1748 40.8018 30.3154 40.5615 30.5029C40.3447 30.667 40.1543 30.8691 39.9902 31.1094C39.832 31.3438 39.7002 31.6074 39.5947 31.9004V38H37.96V28.4902H39.5068L39.5771 29.7646L39.5859 30.002C39.9727 29.4805 40.4355 29.0703 40.9746 28.7715C41.5195 28.4668 42.1377 28.3145 42.8291 28.3145ZM47.1006 33.166C47.1006 32.457 47.1885 31.8066 47.3643 31.2148C47.5459 30.6172 47.8037 30.1045 48.1377 29.6768C48.4658 29.249 48.8643 28.915 49.333 28.6748C49.8018 28.4346 50.3262 28.3145 50.9062 28.3145C51.4746 28.3145 51.9697 28.4111 52.3916 28.6045C52.8193 28.792 53.1885 29.0674 53.499 29.4307V24.5H55.125V38H53.6309L53.5605 36.998C53.2441 37.3848 52.8662 37.6777 52.4268 37.877C51.9873 38.0762 51.4746 38.1758 50.8887 38.1758C50.3145 38.1758 49.793 38.0527 49.3242 37.8066C48.8613 37.5605 48.4658 37.2207 48.1377 36.7871C47.8096 36.3535 47.5547 35.8438 47.373 35.2578C47.1914 34.666 47.1006 34.0303 47.1006 33.3506V33.166ZM48.7266 33.3506C48.7266 33.8135 48.7764 34.2529 48.876 34.6689C48.9756 35.085 49.1309 35.4512 49.3418 35.7676C49.5469 36.084 49.8105 36.3359 50.1328 36.5234C50.4551 36.7051 50.8418 36.7959 51.293 36.7959C51.8379 36.7959 52.2891 36.6729 52.6465 36.4268C53.0039 36.1807 53.2881 35.8496 53.499 35.4336V31.0215C53.2881 30.6348 53.0039 30.3184 52.6465 30.0723C52.2891 29.8203 51.8438 29.6943 51.3105 29.6943C50.8535 29.6943 50.4609 29.7881 50.1328 29.9756C49.8105 30.1631 49.5469 30.415 49.3418 30.7314C49.1309 31.0537 48.9756 31.4258 48.876 31.8477C48.7764 32.2637 48.7266 32.7031 48.7266 33.166V33.3506ZM62.4199 38.1758C61.752 38.1758 61.1367 38.0615 60.5742 37.833C60.0176 37.6045 59.54 37.2852 59.1416 36.875C58.7432 36.4648 58.4326 35.9785 58.21 35.416C57.9873 34.8535 57.876 34.2412 57.876 33.5791V33.21C57.876 32.4424 57.999 31.7568 58.2451 31.1533C58.4912 30.5439 58.8193 30.0283 59.2295 29.6064C59.6338 29.1904 60.0938 28.8711 60.6094 28.6484C61.1309 28.4258 61.6641 28.3145 62.209 28.3145C62.8945 28.3145 63.4922 28.4346 64.002 28.6748C64.5176 28.9092 64.9453 29.2344 65.2852 29.6504C65.625 30.0723 65.877 30.5674 66.041 31.1357C66.2109 31.7041 66.2959 32.3193 66.2959 32.9814V33.7109H59.502V33.7725C59.543 34.2354 59.6338 34.6426 59.7744 34.9941C59.9209 35.3457 60.1201 35.6562 60.3721 35.9258C60.6299 36.2129 60.9404 36.4385 61.3037 36.6025C61.667 36.7666 62.0684 36.8486 62.5078 36.8486C63.0879 36.8486 63.6035 36.7314 64.0547 36.4971C64.5059 36.2627 64.8809 35.9521 65.1797 35.5654L66.1729 36.3389C65.8564 36.8193 65.3818 37.2471 64.749 37.6221C64.1221 37.9912 63.3457 38.1758 62.4199 38.1758ZM62.209 29.6504C61.8809 29.6504 61.5703 29.7119 61.2773 29.835C60.9844 29.9521 60.7207 30.125 60.4863 30.3535C60.252 30.5879 60.0527 30.875 59.8887 31.2148C59.7305 31.5488 59.6191 31.9355 59.5547 32.375H64.6699V32.2959C64.6699 32.0029 64.6143 31.6895 64.5029 31.3555C64.3916 31.0156 64.2363 30.7227 64.0371 30.4766C63.8379 30.2305 63.5859 30.0312 63.2812 29.8789C62.9824 29.7266 62.625 29.6504 62.209 29.6504ZM75.2607 28.3145C75.5596 28.3145 75.8701 28.335 76.1924 28.376C76.5205 28.417 76.7666 28.4727 76.9307 28.543L76.7109 30.1338C76.3945 30.0635 76.0928 30.0137 75.8057 29.9844C75.5244 29.9492 75.2285 29.9316 74.918 29.9316C74.5195 29.9316 74.1592 29.9814 73.8369 30.0811C73.5146 30.1748 73.2334 30.3154 72.9932 30.5029C72.7764 30.667 72.5859 30.8691 72.4219 31.1094C72.2637 31.3438 72.1318 31.6074 72.0264 31.9004V38H70.3916V28.4902H71.9385L72.0088 29.7646L72.0176 30.002C72.4043 29.4805 72.8672 29.0703 73.4062 28.7715C73.9512 28.4668 74.5693 28.3145 75.2607 28.3145ZM80.0947 28.4902H84.9551V36.5938H88.0576V38H80.0947V36.5938H83.3291V29.9053H80.0947V28.4902ZM83.1182 25.9941C83.1182 25.8535 83.1387 25.7217 83.1797 25.5986C83.2266 25.4756 83.2969 25.3701 83.3906 25.2822C83.4668 25.2061 83.5635 25.1475 83.6807 25.1064C83.8037 25.0596 83.9414 25.0361 84.0938 25.0361C84.2461 25.0361 84.3809 25.0596 84.498 25.1064C84.6152 25.1475 84.7119 25.2061 84.7881 25.2822C84.8818 25.3643 84.9521 25.4668 84.999 25.5898C85.0459 25.7129 85.0693 25.8477 85.0693 25.9941C85.0693 26.2578 84.9873 26.4775 84.8232 26.6533C84.6592 26.8291 84.416 26.917 84.0938 26.917C83.7656 26.917 83.5195 26.8291 83.3555 26.6533C83.1973 26.4775 83.1182 26.2578 83.1182 25.9941ZM90.6504 38V28.4902H92.1094L92.2236 29.8965C92.3643 29.6973 92.5166 29.5156 92.6807 29.3516C92.8506 29.1816 93.0293 29.0352 93.2168 28.9121C93.498 28.7246 93.8027 28.5811 94.1309 28.4814C94.4648 28.376 94.8164 28.3203 95.1855 28.3145C95.6836 28.3145 96.1348 28.3848 96.5391 28.5254C96.9492 28.666 97.2979 28.8857 97.585 29.1846C97.8721 29.4834 98.0918 29.8643 98.2441 30.3271C98.4023 30.7842 98.4814 31.3291 98.4814 31.9619V38H96.8555V31.9971C96.8555 31.5752 96.8086 31.2178 96.7148 30.9248C96.6211 30.6318 96.4834 30.3945 96.3018 30.2129C96.1143 30.0312 95.8857 29.8994 95.6162 29.8174C95.3525 29.7354 95.0479 29.6943 94.7021 29.6943C94.4033 29.6943 94.125 29.7383 93.8672 29.8262C93.6094 29.9082 93.3721 30.0225 93.1553 30.1689C92.9795 30.2979 92.8154 30.4473 92.6631 30.6172C92.5166 30.7871 92.3877 30.9746 92.2764 31.1797V38H90.6504ZM101.162 33.166C101.162 32.457 101.247 31.8066 101.417 31.2148C101.593 30.6172 101.845 30.1045 102.173 29.6768C102.501 29.249 102.899 28.915 103.368 28.6748C103.837 28.4346 104.367 28.3145 104.959 28.3145C105.34 28.3145 105.688 28.3584 106.005 28.4463C106.327 28.5342 106.617 28.6631 106.875 28.833C107.016 28.9209 107.147 29.0234 107.271 29.1406C107.399 29.2578 107.52 29.3867 107.631 29.5273L107.71 28.4902H109.187V37.7979C109.187 38.4248 109.087 38.9814 108.888 39.4678C108.694 39.9541 108.422 40.3672 108.07 40.707C107.713 41.0469 107.288 41.3047 106.796 41.4805C106.304 41.6562 105.759 41.7441 105.161 41.7441C104.915 41.7441 104.634 41.7148 104.317 41.6562C104.001 41.6035 103.682 41.5127 103.359 41.3838C103.031 41.2607 102.715 41.0938 102.41 40.8828C102.111 40.6719 101.854 40.4111 101.637 40.1006L102.48 39.125C102.68 39.3652 102.885 39.5674 103.096 39.7314C103.307 39.9014 103.521 40.0361 103.737 40.1357C103.954 40.2354 104.171 40.3057 104.388 40.3467C104.604 40.3936 104.821 40.417 105.038 40.417C105.425 40.417 105.773 40.3613 106.084 40.25C106.395 40.1387 106.661 39.9746 106.884 39.7578C107.101 39.5469 107.268 39.2832 107.385 38.9668C107.502 38.6504 107.561 38.2871 107.561 37.877V37.0596C107.438 37.2002 107.306 37.3291 107.165 37.4463C107.03 37.5635 106.884 37.666 106.726 37.7539C106.479 37.8887 106.207 37.9912 105.908 38.0615C105.609 38.1377 105.287 38.1758 104.941 38.1758C104.361 38.1758 103.837 38.0527 103.368 37.8066C102.899 37.5605 102.504 37.2207 102.182 36.7871C101.854 36.3535 101.602 35.8438 101.426 35.2578C101.25 34.666 101.162 34.0303 101.162 33.3506V33.166ZM102.788 33.3506C102.788 33.8135 102.835 34.2529 102.929 34.6689C103.028 35.085 103.184 35.4512 103.395 35.7676C103.6 36.084 103.863 36.3359 104.186 36.5234C104.508 36.7051 104.895 36.7959 105.346 36.7959C105.627 36.7959 105.879 36.7637 106.102 36.6992C106.33 36.6289 106.535 36.5322 106.717 36.4092C106.893 36.2861 107.051 36.1396 107.191 35.9697C107.332 35.7998 107.455 35.6123 107.561 35.4072V31.0479C107.455 30.8486 107.332 30.667 107.191 30.5029C107.051 30.3389 106.89 30.1953 106.708 30.0723C106.526 29.9551 106.324 29.8643 106.102 29.7998C105.879 29.7295 105.633 29.6943 105.363 29.6943C104.906 29.6943 104.514 29.7881 104.186 29.9756C103.863 30.1631 103.6 30.415 103.395 30.7314C103.184 31.0537 103.028 31.4258 102.929 31.8477C102.835 32.2637 102.788 32.7031 102.788 33.166V33.3506Z" fill="#B3B3B2"/>
</svg>
