<svg width="124" height="63" viewBox="0 0 124 63" fill="none" xmlns="http://www.w3.org/2000/svg">
<rect x="0.5" y="0.5" width="123" height="62" rx="11.5" stroke="#333333" stroke-dasharray="5 5"/>
<path d="M29.9287 32.7793H27.3711V38H25.7539V25.2031H29.5068C30.1045 25.2148 30.667 25.2998 31.1943 25.458C31.7217 25.6162 32.1846 25.8535 32.583 26.1699C32.9756 26.4863 33.2832 26.8848 33.5059 27.3652C33.7344 27.8398 33.8486 28.3994 33.8486 29.0439C33.8486 29.46 33.7871 29.8408 33.6641 30.1865C33.5469 30.5322 33.3828 30.8457 33.1719 31.127C32.9609 31.4082 32.709 31.6572 32.416 31.874C32.123 32.0908 31.8008 32.2754 31.4492 32.4277L34.165 37.8945L34.1562 38H32.4424L29.9287 32.7793ZM27.3711 31.4434H29.5508C29.9141 31.4375 30.2568 31.3818 30.5791 31.2764C30.9014 31.165 31.1855 31.0068 31.4316 30.8018C31.6719 30.5967 31.8623 30.3477 32.0029 30.0547C32.1436 29.7559 32.2139 29.4131 32.2139 29.0264C32.2139 28.6162 32.1465 28.2588 32.0117 27.9541C31.877 27.6436 31.6895 27.3828 31.4492 27.1719C31.209 26.9668 30.9219 26.8115 30.5879 26.7061C30.2598 26.6006 29.8994 26.5449 29.5068 26.5391H27.3711V31.4434ZM40.7041 38.1758C40.0361 38.1758 39.4209 38.0615 38.8584 37.833C38.3018 37.6045 37.8242 37.2852 37.4258 36.875C37.0273 36.4648 36.7168 35.9785 36.4941 35.416C36.2715 34.8535 36.1602 34.2412 36.1602 33.5791V33.21C36.1602 32.4424 36.2832 31.7568 36.5293 31.1533C36.7754 30.5439 37.1035 30.0283 37.5137 29.6064C37.918 29.1904 38.3779 28.8711 38.8936 28.6484C39.415 28.4258 39.9482 28.3145 40.4932 28.3145C41.1787 28.3145 41.7764 28.4346 42.2861 28.6748C42.8018 28.9092 43.2295 29.2344 43.5693 29.6504C43.9092 30.0723 44.1611 30.5674 44.3252 31.1357C44.4951 31.7041 44.5801 32.3193 44.5801 32.9814V33.7109H37.7861V33.7725C37.8271 34.2354 37.918 34.6426 38.0586 34.9941C38.2051 35.3457 38.4043 35.6562 38.6562 35.9258C38.9141 36.2129 39.2246 36.4385 39.5879 36.6025C39.9512 36.7666 40.3525 36.8486 40.792 36.8486C41.3721 36.8486 41.8877 36.7314 42.3389 36.4971C42.79 36.2627 43.165 35.9521 43.4639 35.5654L44.457 36.3389C44.1406 36.8193 43.666 37.2471 43.0332 37.6221C42.4062 37.9912 41.6299 38.1758 40.7041 38.1758ZM40.4932 29.6504C40.165 29.6504 39.8545 29.7119 39.5615 29.835C39.2686 29.9521 39.0049 30.125 38.7705 30.3535C38.5361 30.5879 38.3369 30.875 38.1729 31.2148C38.0146 31.5488 37.9033 31.9355 37.8389 32.375H42.9541V32.2959C42.9541 32.0029 42.8984 31.6895 42.7871 31.3555C42.6758 31.0156 42.5205 30.7227 42.3213 30.4766C42.1221 30.2305 41.8701 30.0312 41.5654 29.8789C41.2666 29.7266 40.9092 29.6504 40.4932 29.6504ZM51.1631 26.1875V28.4902H54.7842V29.7471H51.1631V34.915C51.1631 35.2842 51.21 35.5889 51.3037 35.8291C51.3975 36.0693 51.5264 36.2598 51.6904 36.4004C51.8545 36.5469 52.042 36.6494 52.2529 36.708C52.4697 36.7666 52.6982 36.7959 52.9385 36.7959C53.1143 36.7959 53.2959 36.7871 53.4834 36.7695C53.6709 36.7461 53.8555 36.7197 54.0371 36.6904C54.2129 36.6611 54.377 36.6318 54.5293 36.6025C54.6875 36.5674 54.8164 36.5381 54.916 36.5146L55.1445 37.666C55.0098 37.748 54.8457 37.8213 54.6523 37.8857C54.459 37.9443 54.248 37.9941 54.0195 38.0352C53.791 38.082 53.5479 38.1172 53.29 38.1406C53.0381 38.1641 52.7861 38.1758 52.5342 38.1758C52.1123 38.1758 51.7168 38.1172 51.3477 38C50.9844 37.877 50.668 37.6836 50.3984 37.4199C50.1289 37.1621 49.915 36.8281 49.7568 36.418C49.6045 36.002 49.5283 35.501 49.5283 34.915V29.7471H47.0322V28.4902H49.5283V26.1875H51.1631ZM64.3906 38L64.2939 36.6904C63.9775 37.1592 63.582 37.5254 63.1074 37.7891C62.6328 38.0469 62.085 38.1758 61.4639 38.1758C60.9658 38.1758 60.5146 38.0996 60.1104 37.9473C59.7061 37.7891 59.3604 37.5459 59.0732 37.2178C58.7861 36.8896 58.5635 36.4736 58.4053 35.9697C58.2529 35.46 58.1768 34.8506 58.1768 34.1416V28.4902H59.8027V34.1592C59.8027 34.6748 59.8438 35.1025 59.9258 35.4424C60.0078 35.7822 60.1309 36.0518 60.2949 36.251C60.459 36.4561 60.6582 36.5996 60.8926 36.6816C61.1328 36.7637 61.4082 36.8047 61.7188 36.8047C62.082 36.8047 62.4072 36.7637 62.6943 36.6816C62.9814 36.5938 63.2305 36.4736 63.4414 36.3213C63.6172 36.1982 63.7695 36.0518 63.8984 35.8818C64.0332 35.7061 64.1445 35.5156 64.2324 35.3105V28.4902H65.8672V38H64.3906ZM75.166 28.3145C75.4648 28.3145 75.7754 28.335 76.0977 28.376C76.4258 28.417 76.6719 28.4727 76.8359 28.543L76.6162 30.1338C76.2998 30.0635 75.998 30.0137 75.7109 29.9844C75.4297 29.9492 75.1338 29.9316 74.8232 29.9316C74.4248 29.9316 74.0645 29.9814 73.7422 30.0811C73.4199 30.1748 73.1387 30.3154 72.8984 30.5029C72.6816 30.667 72.4912 30.8691 72.3271 31.1094C72.1689 31.3438 72.0371 31.6074 71.9316 31.9004V38H70.2969V28.4902H71.8438L71.9141 29.7646L71.9229 30.002C72.3096 29.4805 72.7725 29.0703 73.3115 28.7715C73.8564 28.4668 74.4746 28.3145 75.166 28.3145ZM79.7451 38V28.4902H81.2041L81.3184 29.8965C81.459 29.6973 81.6113 29.5156 81.7754 29.3516C81.9453 29.1816 82.124 29.0352 82.3115 28.9121C82.5928 28.7246 82.8975 28.5811 83.2256 28.4814C83.5596 28.376 83.9111 28.3203 84.2803 28.3145C84.7783 28.3145 85.2295 28.3848 85.6338 28.5254C86.0439 28.666 86.3926 28.8857 86.6797 29.1846C86.9668 29.4834 87.1865 29.8643 87.3389 30.3271C87.4971 30.7842 87.5762 31.3291 87.5762 31.9619V38H85.9502V31.9971C85.9502 31.5752 85.9033 31.2178 85.8096 30.9248C85.7158 30.6318 85.5781 30.3945 85.3965 30.2129C85.209 30.0312 84.9805 29.8994 84.7109 29.8174C84.4473 29.7354 84.1426 29.6943 83.7969 29.6943C83.498 29.6943 83.2197 29.7383 82.9619 29.8262C82.7041 29.9082 82.4668 30.0225 82.25 30.1689C82.0742 30.2979 81.9102 30.4473 81.7578 30.6172C81.6113 30.7871 81.4824 30.9746 81.3711 31.1797V38H79.7451ZM96.875 35.4775C96.875 35.2842 96.8369 35.1113 96.7607 34.959C96.6846 34.8008 96.5557 34.6572 96.374 34.5283C96.1924 34.3994 95.9521 34.2822 95.6533 34.1768C95.3545 34.0654 94.9824 33.9658 94.5371 33.8779C93.9922 33.7666 93.4941 33.6318 93.043 33.4736C92.5977 33.3154 92.2168 33.125 91.9004 32.9023C91.5781 32.6855 91.3291 32.4307 91.1533 32.1377C90.9775 31.8389 90.8896 31.4932 90.8896 31.1006C90.8896 30.7139 90.9805 30.3535 91.1621 30.0195C91.3438 29.6797 91.5986 29.3838 91.9268 29.1318C92.2549 28.8799 92.6445 28.6807 93.0957 28.5342C93.5527 28.3877 94.0537 28.3145 94.5986 28.3145C95.1846 28.3145 95.7119 28.3906 96.1807 28.543C96.6494 28.6953 97.0479 28.9062 97.376 29.1758C97.7041 29.4453 97.9561 29.7617 98.1318 30.125C98.3135 30.4824 98.4043 30.8691 98.4043 31.2852H96.7783C96.7783 31.0801 96.7256 30.8809 96.6201 30.6875C96.5146 30.4883 96.3682 30.3125 96.1807 30.1602C95.9932 30.0078 95.7646 29.8848 95.4951 29.791C95.2314 29.6973 94.9326 29.6504 94.5986 29.6504C94.2529 29.6504 93.9482 29.6885 93.6846 29.7646C93.4268 29.8408 93.2129 29.9434 93.043 30.0723C92.8672 30.2012 92.7354 30.3506 92.6475 30.5205C92.5596 30.6904 92.5156 30.8662 92.5156 31.0479C92.5156 31.2354 92.5508 31.4023 92.6211 31.5488C92.6914 31.6953 92.8145 31.8271 92.9902 31.9443C93.1602 32.0615 93.3887 32.167 93.6758 32.2607C93.9688 32.3545 94.3379 32.4453 94.7832 32.5332C95.3691 32.6562 95.8936 32.7998 96.3564 32.9639C96.8193 33.1221 97.209 33.3125 97.5254 33.5352C97.8418 33.7637 98.082 34.0273 98.2461 34.3262C98.416 34.625 98.501 34.9707 98.501 35.3633C98.501 35.7852 98.4043 36.1689 98.2109 36.5146C98.0234 36.8604 97.7598 37.1562 97.4199 37.4023C97.0801 37.6484 96.6729 37.8389 96.1982 37.9736C95.7236 38.1084 95.2051 38.1758 94.6426 38.1758C93.998 38.1758 93.4238 38.0908 92.9199 37.9209C92.416 37.7451 91.9912 37.5137 91.6455 37.2266C91.2939 36.9453 91.0244 36.6172 90.8369 36.2422C90.6553 35.8672 90.5645 35.4775 90.5645 35.0732H92.1904C92.2139 35.4072 92.3018 35.6885 92.4541 35.917C92.6123 36.1455 92.8086 36.3301 93.043 36.4707C93.2715 36.6113 93.5264 36.7109 93.8076 36.7695C94.0889 36.8281 94.3672 36.8574 94.6426 36.8574C95.0762 36.8574 95.4541 36.8076 95.7764 36.708C96.0986 36.6025 96.3506 36.459 96.5322 36.2773C96.6436 36.166 96.7285 36.043 96.7871 35.9082C96.8457 35.7734 96.875 35.6299 96.875 35.4775Z" fill="#B3B3B2"/>
</svg>
