<svg width="124" height="63" viewBox="0 0 124 63" fill="none" xmlns="http://www.w3.org/2000/svg">
<rect x="0.5" y="0.5" width="123" height="62" rx="11.5" stroke="#333333" stroke-dasharray="5 5"/>
<path d="M32.3896 34.7656C32.3896 34.373 32.2988 34.042 32.1172 33.7725C31.9414 33.5029 31.7129 33.2744 31.4316 33.0869C31.1504 32.9053 30.8398 32.7529 30.5 32.6299C30.166 32.5068 29.8438 32.3955 29.5332 32.2959C29.082 32.1494 28.6221 31.9736 28.1533 31.7686C27.6904 31.5576 27.2686 31.3057 26.8877 31.0127C26.501 30.7139 26.1846 30.3623 25.9385 29.958C25.6982 29.5479 25.5781 29.0674 25.5781 28.5166C25.5781 27.9658 25.6982 27.4736 25.9385 27.04C26.1846 26.6064 26.5039 26.2402 26.8965 25.9414C27.2891 25.6426 27.7344 25.417 28.2324 25.2646C28.7305 25.1064 29.2314 25.0273 29.7354 25.0273C30.292 25.0273 30.8281 25.1211 31.3438 25.3086C31.8594 25.4902 32.3164 25.748 32.7148 26.082C33.1133 26.416 33.4326 26.8203 33.6729 27.2949C33.9131 27.7695 34.0391 28.2998 34.0508 28.8857H32.3809C32.334 28.5166 32.2432 28.1826 32.1084 27.8838C31.9736 27.5791 31.7949 27.3184 31.5723 27.1016C31.3496 26.8848 31.083 26.7178 30.7725 26.6006C30.4678 26.4775 30.1221 26.416 29.7354 26.416C29.4248 26.416 29.1201 26.46 28.8213 26.5479C28.5283 26.6357 28.2676 26.7676 28.0391 26.9434C27.8047 27.1191 27.6172 27.3359 27.4766 27.5938C27.3418 27.8516 27.2744 28.1504 27.2744 28.4902C27.2803 28.8594 27.374 29.1729 27.5557 29.4307C27.7373 29.6826 27.9688 29.8965 28.25 30.0723C28.5254 30.248 28.8242 30.3945 29.1465 30.5117C29.4746 30.6289 29.7822 30.7314 30.0693 30.8193C30.5439 30.9658 31.0186 31.1445 31.4932 31.3555C31.9678 31.5605 32.4014 31.8242 32.7939 32.1465C33.1807 32.4453 33.4912 32.8115 33.7256 33.2451C33.9658 33.6787 34.0859 34.1797 34.0859 34.748C34.0859 35.3223 33.957 35.8232 33.6992 36.251C33.4473 36.6787 33.1191 37.0332 32.7148 37.3145C32.3105 37.6016 31.8535 37.8184 31.3438 37.9648C30.834 38.1055 30.3242 38.1758 29.8145 38.1758C29.2051 38.1758 28.6045 38.0732 28.0127 37.8682C27.4268 37.6631 26.917 37.3672 26.4834 36.9805C26.0967 36.6465 25.7891 36.2568 25.5605 35.8115C25.3379 35.3604 25.2178 34.8594 25.2002 34.3086H26.8613C26.9141 34.707 27.0225 35.0615 27.1865 35.3721C27.3506 35.6768 27.5615 35.9346 27.8193 36.1455C28.0771 36.3623 28.373 36.5264 28.707 36.6377C29.0469 36.7432 29.416 36.7959 29.8145 36.7959C30.1309 36.7959 30.4414 36.7578 30.7461 36.6816C31.0566 36.5996 31.332 36.4736 31.5723 36.3037C31.8125 36.1396 32.0088 35.9316 32.1611 35.6797C32.3135 35.4219 32.3896 35.1172 32.3896 34.7656ZM42.7695 38L42.6729 36.6904C42.3564 37.1592 41.9609 37.5254 41.4863 37.7891C41.0117 38.0469 40.4639 38.1758 39.8428 38.1758C39.3447 38.1758 38.8936 38.0996 38.4893 37.9473C38.085 37.7891 37.7393 37.5459 37.4521 37.2178C37.165 36.8896 36.9424 36.4736 36.7842 35.9697C36.6318 35.46 36.5557 34.8506 36.5557 34.1416V28.4902H38.1816V34.1592C38.1816 34.6748 38.2227 35.1025 38.3047 35.4424C38.3867 35.7822 38.5098 36.0518 38.6738 36.251C38.8379 36.4561 39.0371 36.5996 39.2715 36.6816C39.5117 36.7637 39.7871 36.8047 40.0977 36.8047C40.4609 36.8047 40.7861 36.7637 41.0732 36.6816C41.3604 36.5938 41.6094 36.4736 41.8203 36.3213C41.9961 36.1982 42.1484 36.0518 42.2773 35.8818C42.4121 35.7061 42.5234 35.5156 42.6113 35.3105V28.4902H44.2461V38H42.7695ZM47.3047 41.6562V28.4902H48.79L48.8691 29.5273C48.998 29.3633 49.1387 29.2168 49.291 29.0879C49.4434 28.9531 49.6074 28.8389 49.7832 28.7451C50.0293 28.6045 50.3018 28.499 50.6006 28.4287C50.9053 28.3525 51.2305 28.3145 51.5762 28.3145C52.1855 28.3145 52.7246 28.4346 53.1934 28.6748C53.6621 28.915 54.0547 29.249 54.3711 29.6768C54.6875 30.1045 54.9277 30.6172 55.0918 31.2148C55.2559 31.8066 55.3379 32.457 55.3379 33.166V33.3506C55.3379 34.0303 55.2559 34.666 55.0918 35.2578C54.9277 35.8438 54.6875 36.3535 54.3711 36.7871C54.0547 37.2207 53.6621 37.5605 53.1934 37.8066C52.7305 38.0527 52.2002 38.1758 51.6025 38.1758C51.2393 38.1758 50.8994 38.1377 50.583 38.0615C50.2725 37.9854 49.9912 37.877 49.7393 37.7363C49.5869 37.6484 49.4434 37.5518 49.3086 37.4463C49.1738 37.335 49.0479 37.2148 48.9307 37.0859V41.6562H47.3047ZM53.7119 33.166C53.7119 32.7031 53.6592 32.2637 53.5537 31.8477C53.4541 31.4258 53.2988 31.0537 53.0879 30.7314C52.8711 30.415 52.5986 30.1631 52.2705 29.9756C51.9424 29.7881 51.5498 29.6943 51.0928 29.6943C50.8408 29.6943 50.6064 29.7236 50.3896 29.7822C50.1787 29.8408 49.9883 29.9258 49.8184 30.0371C49.6309 30.1484 49.4639 30.2861 49.3174 30.4502C49.1709 30.6143 49.042 30.7959 48.9307 30.9951V35.5742C49.0303 35.75 49.1445 35.9141 49.2734 36.0664C49.4023 36.2188 49.5488 36.3477 49.7129 36.4531C49.9004 36.5762 50.1084 36.6729 50.3369 36.7432C50.5713 36.8135 50.8291 36.8486 51.1104 36.8486C51.5615 36.8486 51.9512 36.7549 52.2793 36.5674C52.6074 36.374 52.877 36.1162 53.0879 35.7939C53.2988 35.4717 53.4541 35.0996 53.5537 34.6777C53.6592 34.2559 53.7119 33.8135 53.7119 33.3506V33.166ZM58.1152 41.6562V28.4902H59.6006L59.6797 29.5273C59.8086 29.3633 59.9492 29.2168 60.1016 29.0879C60.2539 28.9531 60.418 28.8389 60.5938 28.7451C60.8398 28.6045 61.1123 28.499 61.4111 28.4287C61.7158 28.3525 62.041 28.3145 62.3867 28.3145C62.9961 28.3145 63.5352 28.4346 64.0039 28.6748C64.4727 28.915 64.8652 29.249 65.1816 29.6768C65.498 30.1045 65.7383 30.6172 65.9023 31.2148C66.0664 31.8066 66.1484 32.457 66.1484 33.166V33.3506C66.1484 34.0303 66.0664 34.666 65.9023 35.2578C65.7383 35.8438 65.498 36.3535 65.1816 36.7871C64.8652 37.2207 64.4727 37.5605 64.0039 37.8066C63.541 38.0527 63.0107 38.1758 62.4131 38.1758C62.0498 38.1758 61.71 38.1377 61.3936 38.0615C61.083 37.9854 60.8018 37.877 60.5498 37.7363C60.3975 37.6484 60.2539 37.5518 60.1191 37.4463C59.9844 37.335 59.8584 37.2148 59.7412 37.0859V41.6562H58.1152ZM64.5225 33.166C64.5225 32.7031 64.4697 32.2637 64.3643 31.8477C64.2646 31.4258 64.1094 31.0537 63.8984 30.7314C63.6816 30.415 63.4092 30.1631 63.0811 29.9756C62.7529 29.7881 62.3604 29.6943 61.9033 29.6943C61.6514 29.6943 61.417 29.7236 61.2002 29.7822C60.9893 29.8408 60.7988 29.9258 60.6289 30.0371C60.4414 30.1484 60.2744 30.2861 60.1279 30.4502C59.9814 30.6143 59.8525 30.7959 59.7412 30.9951V35.5742C59.8408 35.75 59.9551 35.9141 60.084 36.0664C60.2129 36.2188 60.3594 36.3477 60.5234 36.4531C60.7109 36.5762 60.9189 36.6729 61.1475 36.7432C61.3818 36.8135 61.6396 36.8486 61.9209 36.8486C62.3721 36.8486 62.7617 36.7549 63.0898 36.5674C63.418 36.374 63.6875 36.1162 63.8984 35.7939C64.1094 35.4717 64.2646 35.0996 64.3643 34.6777C64.4697 34.2559 64.5225 33.8135 64.5225 33.3506V33.166ZM68.4775 33.1572C68.4775 32.4717 68.5771 31.8359 68.7764 31.25C68.9756 30.6582 69.2627 30.1455 69.6377 29.7119C70.0068 29.2783 70.458 28.9385 70.9912 28.6924C71.5244 28.4404 72.125 28.3145 72.793 28.3145C73.4668 28.3145 74.0703 28.4404 74.6035 28.6924C75.1426 28.9385 75.5996 29.2783 75.9746 29.7119C76.3438 30.1455 76.6279 30.6582 76.8271 31.25C77.0264 31.8359 77.126 32.4717 77.126 33.1572V33.3506C77.126 34.0361 77.0264 34.6719 76.8271 35.2578C76.6279 35.8438 76.3438 36.3535 75.9746 36.7871C75.5996 37.2207 75.1455 37.5605 74.6123 37.8066C74.0791 38.0527 73.4785 38.1758 72.8105 38.1758C72.1367 38.1758 71.5303 38.0527 70.9912 37.8066C70.458 37.5605 70.0068 37.2207 69.6377 36.7871C69.2627 36.3535 68.9756 35.8438 68.7764 35.2578C68.5771 34.6719 68.4775 34.0361 68.4775 33.3506V33.1572ZM70.1035 33.3506C70.1035 33.8193 70.1592 34.2676 70.2705 34.6953C70.3818 35.1172 70.5518 35.4893 70.7803 35.8115C71.0029 36.1338 71.2842 36.3887 71.624 36.5762C71.9639 36.7637 72.3594 36.8574 72.8105 36.8574C73.2559 36.8574 73.6455 36.7637 73.9795 36.5762C74.3193 36.3887 74.6035 36.1338 74.832 35.8115C75.0547 35.4893 75.2217 35.1172 75.333 34.6953C75.4443 34.2676 75.5 33.8193 75.5 33.3506V33.1572C75.5 32.6943 75.4414 32.252 75.3242 31.8301C75.2129 31.4023 75.0459 31.0273 74.8232 30.7051C74.5947 30.3828 74.3105 30.1279 73.9707 29.9404C73.6367 29.7471 73.2441 29.6504 72.793 29.6504C72.3418 29.6504 71.9492 29.7471 71.6152 29.9404C71.2812 30.1279 71.0029 30.3828 70.7803 30.7051C70.5518 31.0273 70.3818 31.4023 70.2705 31.8301C70.1592 32.252 70.1035 32.6943 70.1035 33.1572V33.3506ZM85.9766 28.3145C86.2754 28.3145 86.5859 28.335 86.9082 28.376C87.2363 28.417 87.4824 28.4727 87.6465 28.543L87.4268 30.1338C87.1104 30.0635 86.8086 30.0137 86.5215 29.9844C86.2402 29.9492 85.9443 29.9316 85.6338 29.9316C85.2354 29.9316 84.875 29.9814 84.5527 30.0811C84.2305 30.1748 83.9492 30.3154 83.709 30.5029C83.4922 30.667 83.3018 30.8691 83.1377 31.1094C82.9795 31.3438 82.8477 31.6074 82.7422 31.9004V38H81.1074V28.4902H82.6543L82.7246 29.7646L82.7334 30.002C83.1201 29.4805 83.583 29.0703 84.1221 28.7715C84.667 28.4668 85.2852 28.3145 85.9766 28.3145ZM94.4053 26.1875V28.4902H98.0264V29.7471H94.4053V34.915C94.4053 35.2842 94.4521 35.5889 94.5459 35.8291C94.6396 36.0693 94.7686 36.2598 94.9326 36.4004C95.0967 36.5469 95.2842 36.6494 95.4951 36.708C95.7119 36.7666 95.9404 36.7959 96.1807 36.7959C96.3564 36.7959 96.5381 36.7871 96.7256 36.7695C96.9131 36.7461 97.0977 36.7197 97.2793 36.6904C97.4551 36.6611 97.6191 36.6318 97.7715 36.6025C97.9297 36.5674 98.0586 36.5381 98.1582 36.5146L98.3867 37.666C98.252 37.748 98.0879 37.8213 97.8945 37.8857C97.7012 37.9443 97.4902 37.9941 97.2617 38.0352C97.0332 38.082 96.79 38.1172 96.5322 38.1406C96.2803 38.1641 96.0283 38.1758 95.7764 38.1758C95.3545 38.1758 94.959 38.1172 94.5898 38C94.2266 37.877 93.9102 37.6836 93.6406 37.4199C93.3711 37.1621 93.1572 36.8281 92.999 36.418C92.8467 36.002 92.7705 35.501 92.7705 34.915V29.7471H90.2744V28.4902H92.7705V26.1875H94.4053Z" fill="#B3B3B2"/>
</svg>
