<svg width="113" height="55" viewBox="0 0 113 55" fill="none" xmlns="http://www.w3.org/2000/svg">
<rect x="0.5" y="0.5" width="112" height="54" rx="11.5" stroke="#333333" stroke-dasharray="5 5"/>
<path d="M26.2656 34L24.71 21.2031H26.2568L27.1797 30.0273L27.2324 30.5371L27.3291 30.0098L28.876 21.2031H30.291L31.8467 30.0186L31.9434 30.5371L31.9961 30.0098L32.9189 21.2031H34.457L32.9014 34H31.2402L29.6846 24.8945L29.5967 24.3584L29.5 24.9033L27.9355 34H26.2656ZM35.9512 29.1572C35.9512 28.4717 36.0508 27.8359 36.25 27.25C36.4492 26.6582 36.7363 26.1455 37.1113 25.7119C37.4805 25.2783 37.9316 24.9385 38.4648 24.6924C38.998 24.4404 39.5986 24.3145 40.2666 24.3145C40.9404 24.3145 41.5439 24.4404 42.0771 24.6924C42.6162 24.9385 43.0732 25.2783 43.4482 25.7119C43.8174 26.1455 44.1016 26.6582 44.3008 27.25C44.5 27.8359 44.5996 28.4717 44.5996 29.1572V29.3506C44.5996 30.0361 44.5 30.6719 44.3008 31.2578C44.1016 31.8438 43.8174 32.3535 43.4482 32.7871C43.0732 33.2207 42.6191 33.5605 42.0859 33.8066C41.5527 34.0527 40.9521 34.1758 40.2842 34.1758C39.6104 34.1758 39.0039 34.0527 38.4648 33.8066C37.9316 33.5605 37.4805 33.2207 37.1113 32.7871C36.7363 32.3535 36.4492 31.8438 36.25 31.2578C36.0508 30.6719 35.9512 30.0361 35.9512 29.3506V29.1572ZM37.5771 29.3506C37.5771 29.8193 37.6328 30.2676 37.7441 30.6953C37.8555 31.1172 38.0254 31.4893 38.2539 31.8115C38.4766 32.1338 38.7578 32.3887 39.0977 32.5762C39.4375 32.7637 39.833 32.8574 40.2842 32.8574C40.7295 32.8574 41.1191 32.7637 41.4531 32.5762C41.793 32.3887 42.0771 32.1338 42.3057 31.8115C42.5283 31.4893 42.6953 31.1172 42.8066 30.6953C42.918 30.2676 42.9736 29.8193 42.9736 29.3506V29.1572C42.9736 28.6943 42.915 28.252 42.7979 27.8301C42.6865 27.4023 42.5195 27.0273 42.2969 26.7051C42.0684 26.3828 41.7842 26.1279 41.4443 25.9404C41.1104 25.7471 40.7178 25.6504 40.2666 25.6504C39.8154 25.6504 39.4229 25.7471 39.0889 25.9404C38.7549 26.1279 38.4766 26.3828 38.2539 26.7051C38.0254 27.0273 37.8555 27.4023 37.7441 27.8301C37.6328 28.252 37.5771 28.6943 37.5771 29.1572V29.3506ZM47.9658 24.4902L48.0098 25.3867C48.2031 25.0527 48.4551 24.792 48.7656 24.6045C49.082 24.417 49.4629 24.3203 49.9082 24.3145C50.1602 24.3145 50.3857 24.3438 50.585 24.4023C50.79 24.4551 50.9688 24.5342 51.1211 24.6396C51.2324 24.7217 51.332 24.8213 51.4199 24.9385C51.5137 25.0557 51.5928 25.1875 51.6572 25.334C51.7393 25.1992 51.8359 25.0732 51.9473 24.9561C52.0586 24.8389 52.1787 24.7363 52.3076 24.6484C52.4717 24.5488 52.6533 24.4697 52.8525 24.4111C53.0576 24.3525 53.2803 24.3203 53.5205 24.3145C53.8486 24.3145 54.1445 24.3643 54.4082 24.4639C54.6719 24.5576 54.8945 24.6982 55.0762 24.8857C55.2754 25.0967 55.4277 25.3721 55.5332 25.7119C55.6387 26.0459 55.6914 26.4414 55.6914 26.8984V34H54.1445V26.8809C54.1445 26.6816 54.1211 26.5059 54.0742 26.3535C54.0273 26.2012 53.96 26.0752 53.8721 25.9756C53.7783 25.8818 53.6611 25.8115 53.5205 25.7646C53.3857 25.7178 53.2275 25.6943 53.0459 25.6943C52.8525 25.6943 52.6855 25.7207 52.5449 25.7734C52.4043 25.8262 52.2871 25.8965 52.1934 25.9844C52.0996 26.0781 52.0264 26.1865 51.9736 26.3096C51.9209 26.4268 51.8857 26.5586 51.8682 26.7051C51.8682 26.7344 51.8682 26.7637 51.8682 26.793C51.8682 26.8164 51.8682 26.8457 51.8682 26.8809V34H50.3213V26.8721C50.3213 26.6729 50.2979 26.4971 50.251 26.3447C50.21 26.1924 50.1426 26.0664 50.0488 25.9668C49.9609 25.873 49.8496 25.8057 49.7148 25.7646C49.5859 25.7178 49.4336 25.6943 49.2578 25.6943C49.0645 25.6943 48.8945 25.7178 48.748 25.7646C48.6074 25.8057 48.4873 25.8672 48.3877 25.9492C48.3115 26.0137 48.2441 26.0869 48.1855 26.1689C48.1328 26.251 48.0889 26.3389 48.0537 26.4326V34H46.5068V24.4902H47.9658ZM62.2305 34.1758C61.5625 34.1758 60.9473 34.0615 60.3848 33.833C59.8281 33.6045 59.3506 33.2852 58.9521 32.875C58.5537 32.4648 58.2432 31.9785 58.0205 31.416C57.7979 30.8535 57.6865 30.2412 57.6865 29.5791V29.21C57.6865 28.4424 57.8096 27.7568 58.0557 27.1533C58.3018 26.5439 58.6299 26.0283 59.04 25.6064C59.4443 25.1904 59.9043 24.8711 60.4199 24.6484C60.9414 24.4258 61.4746 24.3145 62.0195 24.3145C62.7051 24.3145 63.3027 24.4346 63.8125 24.6748C64.3281 24.9092 64.7559 25.2344 65.0957 25.6504C65.4355 26.0723 65.6875 26.5674 65.8516 27.1357C66.0215 27.7041 66.1064 28.3193 66.1064 28.9814V29.7109H59.3125V29.7725C59.3535 30.2354 59.4443 30.6426 59.585 30.9941C59.7314 31.3457 59.9307 31.6562 60.1826 31.9258C60.4404 32.2129 60.751 32.4385 61.1143 32.6025C61.4775 32.7666 61.8789 32.8486 62.3184 32.8486C62.8984 32.8486 63.4141 32.7314 63.8652 32.4971C64.3164 32.2627 64.6914 31.9521 64.9902 31.5654L65.9834 32.3389C65.667 32.8193 65.1924 33.2471 64.5596 33.6221C63.9326 33.9912 63.1562 34.1758 62.2305 34.1758ZM62.0195 25.6504C61.6914 25.6504 61.3809 25.7119 61.0879 25.835C60.7949 25.9521 60.5312 26.125 60.2969 26.3535C60.0625 26.5879 59.8633 26.875 59.6992 27.2148C59.541 27.5488 59.4297 27.9355 59.3652 28.375H64.4805V28.2959C64.4805 28.0029 64.4248 27.6895 64.3135 27.3555C64.2021 27.0156 64.0469 26.7227 63.8477 26.4766C63.6484 26.2305 63.3965 26.0312 63.0918 25.8789C62.793 25.7266 62.4355 25.6504 62.0195 25.6504ZM68.8398 34V24.4902H70.2988L70.4131 25.8965C70.5537 25.6973 70.7061 25.5156 70.8701 25.3516C71.04 25.1816 71.2188 25.0352 71.4062 24.9121C71.6875 24.7246 71.9922 24.5811 72.3203 24.4814C72.6543 24.376 73.0059 24.3203 73.375 24.3145C73.873 24.3145 74.3242 24.3848 74.7285 24.5254C75.1387 24.666 75.4873 24.8857 75.7744 25.1846C76.0615 25.4834 76.2812 25.8643 76.4336 26.3271C76.5918 26.7842 76.6709 27.3291 76.6709 27.9619V34H75.0449V27.9971C75.0449 27.5752 74.998 27.2178 74.9043 26.9248C74.8105 26.6318 74.6729 26.3945 74.4912 26.2129C74.3037 26.0312 74.0752 25.8994 73.8057 25.8174C73.542 25.7354 73.2373 25.6943 72.8916 25.6943C72.5928 25.6943 72.3145 25.7383 72.0566 25.8262C71.7988 25.9082 71.5615 26.0225 71.3447 26.1689C71.1689 26.2979 71.0049 26.4473 70.8525 26.6172C70.7061 26.7871 70.5771 26.9746 70.4658 27.1797V34H68.8398ZM85.9697 31.4775C85.9697 31.2842 85.9316 31.1113 85.8555 30.959C85.7793 30.8008 85.6504 30.6572 85.4688 30.5283C85.2871 30.3994 85.0469 30.2822 84.748 30.1768C84.4492 30.0654 84.0771 29.9658 83.6318 29.8779C83.0869 29.7666 82.5889 29.6318 82.1377 29.4736C81.6924 29.3154 81.3115 29.125 80.9951 28.9023C80.6729 28.6855 80.4238 28.4307 80.248 28.1377C80.0723 27.8389 79.9844 27.4932 79.9844 27.1006C79.9844 26.7139 80.0752 26.3535 80.2568 26.0195C80.4385 25.6797 80.6934 25.3838 81.0215 25.1318C81.3496 24.8799 81.7393 24.6807 82.1904 24.5342C82.6475 24.3877 83.1484 24.3145 83.6934 24.3145C84.2793 24.3145 84.8066 24.3906 85.2754 24.543C85.7441 24.6953 86.1426 24.9062 86.4707 25.1758C86.7988 25.4453 87.0508 25.7617 87.2266 26.125C87.4082 26.4824 87.499 26.8691 87.499 27.2852H85.873C85.873 27.0801 85.8203 26.8809 85.7148 26.6875C85.6094 26.4883 85.4629 26.3125 85.2754 26.1602C85.0879 26.0078 84.8594 25.8848 84.5898 25.791C84.3262 25.6973 84.0273 25.6504 83.6934 25.6504C83.3477 25.6504 83.043 25.6885 82.7793 25.7646C82.5215 25.8408 82.3076 25.9434 82.1377 26.0723C81.9619 26.2012 81.8301 26.3506 81.7422 26.5205C81.6543 26.6904 81.6104 26.8662 81.6104 27.0479C81.6104 27.2354 81.6455 27.4023 81.7158 27.5488C81.7861 27.6953 81.9092 27.8271 82.085 27.9443C82.2549 28.0615 82.4834 28.167 82.7705 28.2607C83.0635 28.3545 83.4326 28.4453 83.8779 28.5332C84.4639 28.6562 84.9883 28.7998 85.4512 28.9639C85.9141 29.1221 86.3037 29.3125 86.6201 29.5352C86.9365 29.7637 87.1768 30.0273 87.3408 30.3262C87.5107 30.625 87.5957 30.9707 87.5957 31.3633C87.5957 31.7852 87.499 32.1689 87.3057 32.5146C87.1182 32.8604 86.8545 33.1562 86.5146 33.4023C86.1748 33.6484 85.7676 33.8389 85.293 33.9736C84.8184 34.1084 84.2998 34.1758 83.7373 34.1758C83.0928 34.1758 82.5186 34.0908 82.0146 33.9209C81.5107 33.7451 81.0859 33.5137 80.7402 33.2266C80.3887 32.9453 80.1191 32.6172 79.9316 32.2422C79.75 31.8672 79.6592 31.4775 79.6592 31.0732H81.2852C81.3086 31.4072 81.3965 31.6885 81.5488 31.917C81.707 32.1455 81.9033 32.3301 82.1377 32.4707C82.3662 32.6113 82.6211 32.7109 82.9023 32.7695C83.1836 32.8281 83.4619 32.8574 83.7373 32.8574C84.1709 32.8574 84.5488 32.8076 84.8711 32.708C85.1934 32.6025 85.4453 32.459 85.627 32.2773C85.7383 32.166 85.8232 32.043 85.8818 31.9082C85.9404 31.7734 85.9697 31.6299 85.9697 31.4775Z" fill="#B3B3B2"/>
</svg>
